<svg width="198" height="176" viewBox="0 0 198 176" fill="none" xmlns="http://www.w3.org/2000/svg">
<path d="M6.63516 3.09317e-06C2.98998 3.09317e-06 0.0351562 2.95493 0.0351562 6.6C0.0351562 10.2451 2.98998 13.2 6.63516 13.2H27.6727L50.3602 120.244C51.2578 124.273 53.8986 127.627 57.2352 127.6H167.235C170.722 127.649 173.929 124.487 173.929 121C173.929 117.513 170.722 114.351 167.235 114.4H62.5977L59.7788 101.2H176.035C178.99 101.178 181.782 98.9273 182.429 96.0438L197.829 30.0438C198.687 26.2134 195.36 22.0281 191.435 22H43.0727L39.4977 5.225C38.8731 2.29438 36.0316 -0.00307691 33.0352 3.09317e-06H6.63516ZM45.8227 35.2H183.117L170.81 88H57.0288L45.8227 35.2ZM79.2352 132C67.1631 132 57.2352 141.928 57.2352 154C57.2352 166.072 67.1631 176 79.2352 176C91.3072 176 101.235 166.072 101.235 154C101.235 141.928 91.3072 132 79.2352 132ZM145.235 132C133.163 132 123.235 141.928 123.235 154C123.235 166.072 133.163 176 145.235 176C157.307 176 167.235 166.072 167.235 154C167.235 141.928 157.307 132 145.235 132ZM79.2352 145.2C84.1735 145.2 88.0352 149.062 88.0352 154C88.0352 158.938 84.1735 162.8 79.2352 162.8C74.2973 162.8 70.4352 158.938 70.4352 154C70.4352 149.062 74.2973 145.2 79.2352 145.2ZM145.235 145.2C150.173 145.2 154.035 149.062 154.035 154C154.035 158.938 150.173 162.8 145.235 162.8C140.297 162.8 136.435 158.938 136.435 154C136.435 149.062 140.297 145.2 145.235 145.2Z" fill="black"/>
</svg>
