<svg width="28" height="28" viewBox="0 0 28 28" fill="none" xmlns="http://www.w3.org/2000/svg">
<path d="M14 0C6.28027 0 0 6.28027 0 14C0 21.7197 6.28027 28 14 28C21.7197 28 28 21.7197 28 14C28 6.28027 21.7197 0 14 0ZM14 26C7.3833 26 2 20.6167 2 14C2 7.3833 7.3833 2 14 2C20.6172 2 26 7.3833 26 14C26 20.6167 20.6172 26 14 26ZM18.9854 9.88916C19.1738 11.5728 18.1768 13.3423 16.5039 14.2915C15.5713 14.8208 14.9917 15.8584 14.9917 17C14.9917 17.5522 14.5439 18 13.9917 18C13.4395 18 12.9917 17.5522 12.9917 17C12.9917 15.1396 13.9595 13.4351 15.5176 12.5518C16.4883 12.001 17.0967 10.9976 16.9971 10.1113C16.8574 8.85449 15.3066 7.94678 13.9995 8C12.6392 8.01025 11.4087 8.94385 10.938 10.3232C10.7598 10.8457 10.1924 11.125 9.66846 10.9463C9.146 10.7681 8.8667 10.1997 9.04541 9.67676C9.79004 7.49463 11.7749 6.01709 13.9839 6C13.9961 6 14.0083 6 14.0205 6C16.207 6 18.7158 7.479 18.9854 9.88916ZM14.9917 20V21C14.9917 21.5522 14.5439 22 13.9917 22C13.4395 22 12.9917 21.5522 12.9917 21V20C12.9917 19.4478 13.4395 19 13.9917 19C14.5439 19 14.9917 19.4478 14.9917 20Z" fill="black"/>
</svg>
