<svg width="2112" height="2112" viewBox="0 0 2112 2112" fill="none" xmlns="http://www.w3.org/2000/svg">
<path d="M2087.1 1968.9L1519.7 1401.5C1572.1 1337.9 1614.8 1267.4 1647.1 1191.1C1691.8 1085.4 1714.5 973.1 1714.5 857.5C1714.5 741.9 1691.8 629.6 1647.1 523.9C1603.9 421.8 1542.1 330.2 1463.5 251.5C1384.8 172.8 1293.2 111 1191.1 67.9C1085.4 23.2 973.1 0.5 857.5 0.5C741.9 0.5 629.6 23.2 523.9 67.9C421.8 111.1 330.2 172.9 251.5 251.5C172.8 330.2 111 421.8 67.9 523.9C23.2 629.6 0.5 741.9 0.5 857.5C0.5 973.1 23.2 1085.4 67.9 1191.1C111.1 1293.2 172.9 1384.8 251.5 1463.5C330.2 1542.2 421.8 1604 523.9 1647.1C629.6 1691.8 741.9 1714.5 857.5 1714.5C973.1 1714.5 1085.4 1691.8 1191.1 1647.1C1267.4 1614.8 1337.9 1572.1 1401.5 1519.7L1968.9 2087.1C1985.2 2103.4 2006.6 2111.6 2028 2111.6C2049.4 2111.6 2070.8 2103.4 2087.1 2087.1C2119.8 2054.5 2119.8 2001.5 2087.1 1968.9ZM1125.9 1493.1C1040.9 1529 950.6 1547.3 857.4 1547.3C764.2 1547.3 673.9 1529.1 588.9 1493.1C506.8 1458.4 433 1408.6 369.6 1345.2C306.2 1281.8 256.5 1208 221.7 1125.9C185.8 1040.9 167.5 950.6 167.5 857.4C167.5 764.2 185.7 673.9 221.7 588.9C256.4 506.8 306.2 433 369.6 369.6C433 306.2 506.8 256.5 588.9 221.7C673.9 185.8 764.2 167.5 857.4 167.5C950.6 167.5 1040.9 185.7 1125.9 221.7C1208 256.4 1281.8 306.2 1345.2 369.6C1408.6 433 1458.3 506.8 1493.1 588.9C1529 673.9 1547.3 764.2 1547.3 857.4C1547.3 950.6 1529.1 1040.9 1493.1 1125.9C1458.4 1208 1408.6 1281.8 1345.2 1345.2C1281.8 1408.6 1208 1458.3 1125.9 1493.1Z" fill="black"/>
</svg>
